<svg xmlns="http://www.w3.org/2000/svg" viewBox="0 0 1083.5754 1806.7811" height="1927.233" width="1155.814"><g transform="translate(298.93 636.743)"><g class="pin-svg-path"><path stroke-miterlimit="10" d="M244.25 1075.24c-38.766-190.3-107.116-348.664-189.903-495.439C-7.06 470.93-78.197 370.438-144.017 264.863c-21.972-35.244-40.934-72.477-62.047-109.054-42.216-73.137-76.444-157.935-74.27-267.932 2.126-107.473 33.209-193.684 78.03-264.172 73.72-115.935 197.202-210.989 362.885-235.969 135.466-20.424 262.475 14.082 352.543 66.748 73.6 43.038 130.596 100.527 173.92 168.28 45.22 70.716 76.359 154.26 78.97 263.232 1.338 55.83-7.804 107.532-20.683 150.418-13.034 43.409-33.996 79.695-52.646 118.454-36.406 75.659-82.05 144.982-127.855 214.346-136.437 206.606-264.496 417.31-320.58 706.027z" class="pin-svg-path" clip-rule="evenodd" fill="#de4b31" fill-rule="evenodd" stroke="#000" stroke-width="37"/></g><circle r="136.201" cy="-126.495" cx="242.857" class="pin-svg-path" stroke="#000" stroke-width="5"/></g></svg>